<svg width="561.52" height="423.26" version="1.1" viewBox="0 0 561.52 423.26" xmlns="http://www.w3.org/2000/svg"><path d="m496.83 106.42v-102.67h-493.08v415.76h493.08v-103.94" fill="none" stroke="#333" stroke-width="7.5"/><g transform="matrix(1.6881 .20728 -.20728 1.6881 382.51 -36.638)" stroke="#fad232" stroke-width="3.5278"><g fill="none" stroke="#fad232" stroke-linejoin="round" stroke-width="3.5278"><path d="m75.028 171.89 16.631 17.009c0.51092-7.7091 0.86802-11.189-1e-6 -19.466z" style="paint-order:normal"/><path d="m91.659 169.43 25.702-5.1027c-2.5438-4.0188-28.333-43.426-38.932-80.887-0.08911 29.482-2.318 58.964-3.4018 88.446"/><path d="m78.43 83.443-13.796 90.714s-12.473 5.6696-29.104 5.8586c16.892-33.343 30.523-65.237 42.9-96.573z"/><path d="m64.634 174.16 27.025 14.741"/></g></g><g fill="#333" letter-spacing="0px" word-spacing="0px"><text x="207.51761" y="125.90248" font-family="sans-serif" font-size="40px" style="line-height:1.25" xml:space="preserve"><tspan x="207.51761" y="125.90248" fill="#333333" font-family="Waltograph" font-size="120px" font-weight="500" text-align="center" text-anchor="middle" style="font-feature-settings:normal;font-variant-caps:normal;font-variant-ligatures:normal;font-variant-numeric:normal">Lita</tspan></text><text x="220.22925" y="355.97586" font-family="sans-serif" font-size="40px" style="line-height:1.25" xml:space="preserve"><tspan x="220.22925" y="355.97586" fill="#333333" font-family="Waltograph" font-size="120px" font-weight="500" text-align="center" text-anchor="middle" style="font-feature-settings:normal;font-variant-caps:normal;font-variant-ligatures:normal;font-variant-numeric:normal">The Globe</tspan></text><text x="186.06477" y="231.97142" font-family="Waltograph" font-size="80px" font-weight="500" style="font-feature-settings:normal;font-variant-caps:normal;font-variant-ligatures:normal;font-variant-numeric:normal;line-height:1.25" xml:space="preserve"><tspan x="186.06477" y="231.97142" fill="#333333" font-family="Waltograph" font-size="80px" font-weight="500" style="font-feature-settings:normal;font-variant-caps:normal;font-variant-ligatures:normal;font-variant-numeric:normal">&amp;</tspan></text></g></svg>
