<svg width="561.52" height="423.26" version="1.1" viewBox="0 0 561.52 423.26" xmlns="http://www.w3.org/2000/svg">
 <path d="m496.83 106.42v-102.67h-493.08v415.76h493.08v-103.94" fill="none" stroke="#333" stroke-width="7.5"/>
 <g transform="matrix(1.7008 0 0 1.7008 360.51 -20.492)" stroke="#fad232" stroke-width="1.6463">
  <g fill="none" stroke="#fad232" stroke-linejoin="round" stroke-width="1.6463">
   <path d="m75.028 171.89 16.631 17.009c0.51092-7.7091 0.86802-11.189-1e-6 -19.466z" style="paint-order:normal"/>
   <path d="m91.659 169.43 25.702-5.1027c-2.5438-4.0188-28.333-43.426-38.932-80.887-0.08911 29.482-2.318 58.964-3.4018 88.446"/>
   <path d="m78.43 83.443-13.796 90.714s-12.473 5.6696-29.104 5.8586c16.892-33.343 30.523-65.237 42.9-96.573z"/>
   <path d="m64.634 174.16 27.025 14.741"/>
  </g>
 </g>
 <g>
  <g transform="translate(-1.2654 -48.716)" style="font-feature-settings:normal;font-variant-caps:normal;font-variant-ligatures:normal;font-variant-numeric:normal" aria-label="Lita ">
   <path d="m164.85 141.98c4.68-15.24 8.4-29.52 8.4-46.08 0-8.76-0.36-22.56-11.28-22.56-3 0-3.48 0.72-3.48 3.72 1.56 6.96 5.52 18 5.52 30.96 0 7.08-1.32 22.92-4.8 32.28-2.4-0.6-4.8-1.32-9.36-1.32-5.16 0-10.8 6.72-10.8 13.92 0 5.52 3.6 8.76 8.04 8.76 7.08 0 11.52-4.44 14.76-12.24 6.36 3.24 14.64 11.88 21.6 15.84 2.28 1.32 5.4 2.04 6.6 2.04 2.76 0 5.52-0.48 5.52-2.04 0-0.48-0.24-0.96-0.72-1.56-7.32-9.72-20.4-17.04-30-21.72zm-7.68 5.04c-2.04 7.08-6.72 9.48-9.6 9.48-2.04 0-3-2.04-3-4.32 0-4.32 3.72-6.96 6.36-6.96 1.44 0 3.6 0.12 6.24 1.8z" style="font-feature-settings:normal;font-variant-caps:normal;font-variant-ligatures:normal;font-variant-numeric:normal"/>
   <path d="m223.83 86.9c-0.72-2.64-4.92-4.68-10.2-4.68-11.4 0-23.28 10.56-23.28 18.48 0 2.64 1.32 4.8 3.12 7.2-0.12 0.6-0.36 1.44-0.36 2.04 0.24 2.64 1.8 4.92 3 5.16 1.8-0.24 2.28-1.56 3.6-3.12 2.16 0.72 5.16 1.08 7.56 1.08 7.92 0 23.76-10.56 23.76-19.8 0-4.44-4.68-6.48-6.72-6.48-0.24 0-0.36 0.12-0.48 0.12zm-20.88 33c-0.48 0-0.6 0.24-0.72 0.84-1.56 12.12-1.92 18.72-2.04 20.4-0.24 6.36-0.36 6.48-0.36 12.6 0.12 1.2 0.84 5.88 2.4 6.36 0.96 0.36 2.4 0.72 3.36 0.72 3 0 3.72-2.28 3.72-4.2 0-9.6-0.96-19.8-1.2-29.52-0.24-4.56-0.84-7.08-5.16-7.2zm0.48-14.88c4.92-6.72 11.76-13.44 18.72-13.44 3.12 0 3.12 1.32 3.12 3 0 7.32-12.24 11.4-18.24 11.4h-2.64c-0.36 0-0.96-0.72-0.96-0.96zm-7.2-4.32c0.48-4.68 4.2-9.12 10.2-10.32 0.24 0.24 0.24 0.48 0.24 0.6v0.12c-2.76 2.64-7.8 7.44-9.36 9.6-0.12 0.12-0.36 0.24-0.6 0.24s-0.36-0.12-0.48-0.24z" style="font-feature-settings:normal;font-variant-caps:normal;font-variant-ligatures:normal;font-variant-numeric:normal"/>
   <path d="m236.9 171.38c-0.12-3.96-0.24-8.52-0.24-13.2 0-7.92 0.36-16.68 2.4-24.36h0.72c4.2 0 13.92-1.2 13.92-8.04 0-8.76-5.04-9.72-8.28-9.72-5.88 0-9.36 5.16-11.52 7.2-4.92-0.72-9-1.8-13.08-5.16-0.84-0.72 0.12-3.72-1.44-3.72-1.8 0.6-2.4 3.72-2.4 5.28 0 4.68 4.32 8.52 12.48 11.76-2.04 6.36-4.08 14.76-4.08 25.08 0 3.72 0.12 9 2.16 12.12 1.08 1.44 3.72 3.96 6 3.96 1.8 0 2.28-0.24 3.36-1.2zm4.68-47.28c0.12-3 3.24-4.68 5.64-4.68 1.08 0 1.8 0.96 1.8 1.92 0 1.56-3.6 3-5.52 3-0.72 0-1.32-0.12-1.92-0.24z" style="font-feature-settings:normal;font-variant-caps:normal;font-variant-ligatures:normal;font-variant-numeric:normal"/>
   <path d="m272.3 115.34-0.36 1.44-5.76 7.08c-2.88 4.32-7.08 12.84-9 16.92h-3.96c-0.6 0-1.2 0-1.68-0.12l-0.24 2.28c2.52 0.36 3.6 2.4 3.6 4.32-2.16 3.84-3.36 7.44-3.36 10.32 0 2.52 0.6 4.08 2.28 5.88 0.96 0.12 1.68 0.36 2.4 0.36 1.2 0 2.28-0.36 2.88-0.96l1.32-3.48c1.68-4.44 2.52-9.12 4.32-9.72 0.12-0.12 0.36-0.12 0.72-0.12 0.96 0 2.4 0.12 6.6 0.12h3.84l0.48 6.96c1.32 3.12 3.12 5.64 5.4 5.64 0.48 0 0.96-0.12 1.32-0.36 0.36-1.44 0.36-2.52 0.36-6.72 0-9.24-0.96-15.12-2.4-25.56-0.48-3.24-2.64-9.12-3.24-11.16-0.24-1.68-1.92-3.72-3.48-3.72h-0.72c-0.6 0-0.96 0-1.32 0.6zm-4.32 24.84c0.84-2.88 3.48-9.84 5.16-10.32 1.56 2.76 1.68 8.04 1.68 10.32-1.08 0.12-2.4 0.12-3.48 0.12s-2.28 0-3.36-0.12z" style="font-feature-settings:normal;font-variant-caps:normal;font-variant-ligatures:normal;font-variant-numeric:normal"/>
  </g>
  <g transform="translate(0 24.674)" style="font-feature-settings:normal;font-variant-caps:normal;font-variant-ligatures:normal;font-variant-numeric:normal" aria-label="The Globe">
   <path d="m71.775 346c1.2 0 1.56-0.48 1.56-1.2 0-0.96-0.84-1.92-2.04-3.72-5.52-8.28-8.4-17.28-8.4-27.84 0-13.08 4.2-26.76 10.56-37.44 3.72 0.72 7.44 1.08 11.04 1.08 12.12 0 30.6-6.72 30.6-21.96 0-3.72-4.56-3.96-7.56-3.96-14.28 0-28.8 5.64-39.12 15.72-9.6-1.68-21.48-5.04-25.92-8.64-1.92-1.44-3.24-2.52-3.24-3.6s0.84-2.4 2.64-4.32c0.24-0.24 0.24-0.48 0.24-0.84s0-0.84-0.72-0.84h-0.48c-3.48 0-6.6 3-6.6 5.64 0 4.68 4.8 8.28 8.76 10.44 5.28 2.88 13.08 6.48 20.28 8.88-6.6 10.08-10.92 20.28-10.92 32.28 0 11.28 4.8 26.88 12.24 36.36 1.8 2.16 4.44 3.72 7.08 3.96zm25.08-85.08c1.68-0.36 5.16-1.2 8.16-1.2-4.08 6.72-11.88 8.64-19.8 8.64-1.32 0-2.88 0-4.32-0.12 4.56-3.48 10.56-6 15.96-7.32z" style="font-feature-settings:normal;font-variant-caps:normal;font-variant-ligatures:normal;font-variant-numeric:normal"/>
   <path d="m108.21 294.64 0.24 2.88 1.08 15.24c-1.2 0.24-1.68 0.24-2.76 0.24-4.08 0-5.16-0.12-7.68-0.6v-5.52c0-4.92 0.36-7.92 0.6-9.96 0.12-0.96 0.24-1.2 0.24-2.16-0.84-0.72-3.48-1.2-4.56-1.2-0.96 0-1.68 0.12-2.4 0.36l-1.92 0.96-0.84 14.76c-1.44-0.36-3.36-1.2-5.52-2.52v1.08c0 0.12-0.12 0.24-0.12 0.48 0 1.92 0.48 5.16 0.72 6 0.6 1.8 2.76 3.72 4.2 4.32 0 1.56 0.24 8.28 0.72 9.6l0.96 3.48c1.8 1.32 3.12 1.44 4.68 1.44 3.24-0.36 3.72-0.48 3.72-2.88 0-1.2 0-6.6-0.24-9.48 2.76 0.24 4.68 0.36 6.36 0.36 1.2 0 2.52-0.12 4.08-0.24h0.36v0.48l0.48 8.88c0.36 2.04 3.12 3.24 4.92 3.24 0.96 0 1.68-0.24 2.76-0.6 1.32-1.44 1.32-4.8 1.32-6.6 0-2.52-0.36-4.68-0.72-6.96-0.36-2.04-0.72-4.08-0.72-6.36l-0.84-14.76c0-1.08-0.12-2.16-0.12-3-0.12-1.44-0.12-2.76-0.12-3.48-1.32-0.6-3.48-0.84-4.44-0.84h-1.68c-1.44 0.84-2.4 2.04-2.76 3.36z" style="font-feature-settings:normal;font-variant-caps:normal;font-variant-ligatures:normal;font-variant-numeric:normal"/>
   <path d="m151.37 326.08c0-1.56-1.56-3.6-3-3.6-1.2 0-2.76 0.12-3.96 0.24-7.68 0.72-12.24 1.92-12.84 1.92 1.2-2.64 2.28-5.52 2.88-8.04 0.24-0.48 0.48-0.48 0.72-0.48 6 0 11.4-0.24 13.56-0.36 1.08-0.12 1.32-1.92 1.32-2.88 0-1.08-0.12-2.64-0.72-3.48l-1.68-0.24h-8.88c-0.84 0-1.08-0.72-1.08-1.2 0-3 0.96-4.56 1.44-5.04 0.6-0.12 1.2-0.12 1.8-0.12 3.24-0.12 4.44 0 9.6-0.36 2.28-0.12 6.48-1.44 6.48-2.64 0-2.04-2.76-4.56-3.84-5.88-2.52-0.72-3.84-0.84-4.92-0.84-9.84 0-15.72 2.16-20.76 2.4-2.04 0.12-3.12 0.48-3.12 1.8 0 2.52 4.08 4.08 6.84 5.4l-2.88 6.6c-1.08 0.12-2.16 0.6-3.12 0.96-0.24 0.96-0.6 1.44-0.6 2.4 0 1.2 0.6 1.92 0.96 3.12-1.32 3.72-3 7.44-3 10.2 0 5.16 3 10.08 9.6 10.08 7.92 0 15.24-5.64 18.48-8.16 0.6-0.36 0.72-1.08 0.72-1.8z" style="font-feature-settings:normal;font-variant-caps:normal;font-variant-ligatures:normal;font-variant-numeric:normal"/>
   <path d="m266.46 266.08c0.6 2.4 3 4.56 5.52 4.56 3.72 0 6.48-3.36 6.48-7.2 0-10.44-10.56-16.68-21.72-16.68-33 0-63.6 29.52-63.6 63.12 0 18.84 12.72 27.12 29.88 27.12 16.44 0 30.36-10.44 30.36-26.88 0-2.88-0.36-5.88-1.2-9 3.24-2.16 5.28-5.04 5.28-8.16 0-1.92-0.36-3.96-3.84-5.64-0.12-0.12-0.36-0.12-0.48-0.12-0.48 0-0.84 0.36-1.08 0.84 0 0.6 1.32 1.8 1.32 2.28-1.44 0.96-3.12 2.16-4.56 2.64-6-3.6-11.16-4.8-16.92-4.8-10.56 0-24 3.24-24 11.76 0 5.76 8.16 8.28 11.76 8.28 9.48 0 18.96-1.44 27.6-5.28 0.12 0.72 0.12 1.44 0.12 2.16 0 13.32-12.48 22.56-24.48 22.56-10.32 0-19.92-5.16-19.92-15.96 0-11.76 3.72-22.8 9.36-31.08 8.88-13.08 27.12-24.96 46.68-24.96 7.08 0 13.44 3.84 13.44 8.04 0 2.28-0.84 3.12-2.4 3.12-0.96 0-2.16-0.36-3.6-0.72zm-52.56 32.64c2.28-4.44 12.24-5.04 18.24-5.04 1.56 0 6.96 0.84 10.68 3.12-5.4 1.56-9.24 1.68-17.4 2.28-0.96 0.12-2.16 0.12-3.6 0.12-2.76 0-6-0.12-7.92-0.48z" style="font-feature-settings:normal;font-variant-caps:normal;font-variant-ligatures:normal;font-variant-numeric:normal"/>
   <path d="m274.38 290.68c-2.16 0.72-3 1.32-3.72 2.64-2.64 4.92-7.68 18.36-7.68 27.36 0 6.12 1.08 13.92 9.12 13.92 5.88 0 14.76-7.68 14.76-12.84 0-0.72-0.12-2.76-1.32-2.76s-3.6 1.2-5.4 1.92c-3.72 1.32-6.36 2.76-8.04 2.76-0.72 0-1.32-0.96-1.32-2.04v-0.48c2.04-16.68 5.52-19.2 5.64-27.84 0-1.8-0.24-2.64-2.04-2.64z" style="font-feature-settings:normal;font-variant-caps:normal;font-variant-ligatures:normal;font-variant-numeric:normal"/>
   <path d="m293.88 329.08v0.24c0 1.92 1.2 4.8 3.6 7.92 1.44-1.32 2.88-2.4 3.36-3.84 14.4-0.6 30.24-10.44 30.24-25.2 0-3.24-1.56-8.28-3.6-9.6-2.52-1.68-5.52-2.28-8.16-2.28h-0.12c1.08-0.12 2.52-0.6 2.52-1.56 0-0.72-1.08-1.56-3-2.4-1.56-0.6-3.72-0.96-6.36-0.96-12 0-23.04 9.48-23.04 22.32 0 4.8 1.32 9.96 4.56 15.36zm25.68-25.44c2.88 0 4.8 1.32 4.8 3.84 0 8.4-12 15.72-18.36 15.72h-1.56c4.44-11.88 8.76-19.56 15.12-19.56zm-6.24-6.24c-6.72 2.04-11.4 9.24-16.56 22.44-0.36-1.2-0.48-2.4-0.48-3.6 0-7.32 4.44-15.84 14.52-18.24 1.56-0.48 3.36-0.96 5.28-1.32-0.96 0.12-1.8 0.48-2.76 0.72zm3.36-0.84c-0.24 0-0.36 0-0.6 0.12 0.24-0.12 0.36-0.12 0.6-0.12z" style="font-feature-settings:normal;font-variant-caps:normal;font-variant-ligatures:normal;font-variant-numeric:normal"/>
   <path d="m335.32 332.68c0.48 0.96 1.44 1.2 2.76 1.2 1.2 0 2.64-0.24 3.6-0.6 3.24 1.08 6.96 0.6 10.44 0.96 9.36 0 16.32-5.16 16.32-16.44 0-4.8-3-8.16-7.2-9.12 2.64-2.16 3.48-4.2 3.48-6 0-6.12-5.52-11.04-12.24-11.04-5.64 0-15.36 0.24-20.28 6.24-0.6 0.84-1.32 1.56-1.56 2.76 0.84 1.2 1.56 1.68 2.16 1.68 1.2 0 3-0.36 4.8-1.08-1.56 4.32-3.12 11.04-3.12 14.76-0.12 1.56-0.12 3-0.12 4.32 0 4.32 0.24 8.04 0.96 12.24zm15.72-17.76c4.56 0 9.36 0.72 9.36 3.48 0 6.6-6.12 7.8-11.76 7.8 0.36-0.6 1.92-1.32 3.24-2.04 1.44-0.96 2.76-1.68 2.76-2.52v-0.6l-1.8-0.12c-3.96 0-8.04 2.16-9.96 4.2l0.6-9.48c1.08-0.36 4.32-0.72 7.56-0.72zm-0.12-16.08h1.2c3.72 0.12 4.2 1.44 4.2 3.84 0 3.6-7.68 4.92-12.6 5.64 0.24-2.4 0.84-4.44 1.32-6.36 0.24-0.84 0.48-1.56 0.6-2.4 1.92-0.48 3.6-0.72 5.28-0.72z" style="font-feature-settings:normal;font-variant-caps:normal;font-variant-ligatures:normal;font-variant-numeric:normal"/>
   <path d="m398.87 326.08c0-1.56-1.56-3.6-3-3.6-1.2 0-2.76 0.12-3.96 0.24-7.68 0.72-12.24 1.92-12.84 1.92 1.2-2.64 2.28-5.52 2.88-8.04 0.24-0.48 0.48-0.48 0.72-0.48 6 0 11.4-0.24 13.56-0.36 1.08-0.12 1.32-1.92 1.32-2.88 0-1.08-0.12-2.64-0.72-3.48l-1.68-0.24h-8.88c-0.84 0-1.08-0.72-1.08-1.2 0-3 0.96-4.56 1.44-5.04 0.6-0.12 1.2-0.12 1.8-0.12 3.24-0.12 4.44 0 9.6-0.36 2.28-0.12 6.48-1.44 6.48-2.64 0-2.04-2.76-4.56-3.84-5.88-2.52-0.72-3.84-0.84-4.92-0.84-9.84 0-15.72 2.16-20.76 2.4-2.04 0.12-3.12 0.48-3.12 1.8 0 2.52 4.08 4.08 6.84 5.4l-2.88 6.6c-1.08 0.12-2.16 0.6-3.12 0.96-0.24 0.96-0.6 1.44-0.6 2.4 0 1.2 0.6 1.92 0.96 3.12-1.32 3.72-3 7.44-3 10.2 0 5.16 3 10.08 9.6 10.08 7.92 0 15.24-5.64 18.48-8.16 0.6-0.36 0.72-1.08 0.72-1.8z" style="font-feature-settings:normal;font-variant-caps:normal;font-variant-ligatures:normal;font-variant-numeric:normal"/>
  </g>
  <text x="169.55708" y="235.98802" fill="#000000" font-family="Waltograph" font-size="40px" font-weight="500" letter-spacing="0px" word-spacing="0px" style="font-feature-settings:normal;font-variant-caps:normal;font-variant-ligatures:normal;font-variant-numeric:normal;line-height:1.25" xml:space="preserve"><tspan x="169.55708" y="235.98802" font-family="Waltograph" font-size="120px" font-weight="500" style="font-feature-settings:normal;font-variant-caps:normal;font-variant-ligatures:normal;font-variant-numeric:normal">&amp;</tspan></text>
 </g>
</svg>
